<svg xmlns="http://www.w3.org/2000/svg" width="512" height="512" viewBox="0 0 478.208 478.208"><path d="M473.418 449.285L303.28 279.148c59.759-73.087 48.954-180.779-24.132-240.538S98.369-10.344 38.61 62.742-10.344 243.521 62.742 303.28c62.953 51.473 153.453 51.473 216.406 0l170.138 170.138c6.78 6.548 17.584 6.36 24.132-.42 6.387-6.614 6.387-17.099 0-23.713zm-302.2-141.534c-75.37-.085-136.449-61.163-136.533-136.533 0-75.405 61.128-136.533 136.533-136.533s136.533 61.128 136.533 136.533-61.128 136.533-136.533 136.533z" fill="#ff1510" data-original="#000000" xmlns="http://www.w3.org/2000/svg"/></svg>